# AST/ASF file generated using VICON BodyLanguage
# -----------------------------------------------
:version 1.10
:name VICON
:units
  mass 1.0
  length 0.45
  angle deg
:documentation
   .ast/.asf automatically generated from VICON data using
   VICON BodyBuilder and BodyLanguage model FoxedUp or BRILLIANT.MOD
:root
   order TX TY TZ RX RY RZ
   axis XYZ
   position 0 0 0  
   orientation 0 0 0 
:bonedata
  begin
     id 1 
     name lhipjoint
     direction 0.692814 -0.645514 0.321437 
     length 2.38754 
     axis 0 0 0  XYZ
  end
  begin
     id 2 
     name lfemur
     direction 0.34202 -0.939693 0  
     length 6.41921  
     axis 0 0 20  XYZ
    dof rx ry rz
    limits (-160.0 20.0)
           (-70.0 70.0)
           (-60.0 70.0)
  end
  begin
     id 3 
     name ltibia
     direction 0.34202 -0.939693 0   
     length 6.98247   
     axis 0 0 20   XYZ
    dof rx
    limits (-10.0 170.0)
  end
  begin
     id 4 
     name lfoot
     direction 0.0947186 -0.260237 0.960888   
     length 1.83034   
     axis -90 7.62852e-016 20   XYZ
    dof rx rz
    limits (-45.0 90.0)
           (-70.0 20.0)
  end
  begin
     id 5 
     name ltoes
     direction 1.53538e-011 -4.21952e-011 1   
     length 0.920499   
     axis -90 7.62852e-016 20   XYZ
    dof rx
    limits (-90.0 20.0)
  end
  begin
     id 6 
     name rhipjoint
     direction -0.631686 -0.693949 0.345555   
     length 2.2209  
     axis 0 0 0  XYZ 
  end
  begin
     id 7 
     name rfemur
     direction -0.34202 -0.939693 0   
     length 6.49542   
     axis 0 0 -20   XYZ
    dof rx ry rz
    limits (-160.0 20.0)
           (-70.0 70.0)
           (-70.0 60.0)
  end
  begin
     id 8 
     name rtibia
     direction -0.34202 -0.939693 0   
     length 7.21712   
     axis 0 0 -20   XYZ
    dof rx
    limits (-10.0 170.0)
 end
 begin
     id 9 
     name rfoot
     direction -0.0825378 -0.226771 0.970444   
     length 1.89724  
     axis -90 -7.62852e-016 -20   XYZ
    dof rx rz
    limits (-45.0 90.0)
           (-20.0 70.0)
  end
  begin
     id 10 
     name rtoes
     direction -1.53515e-011 -4.22016e-011 1   
     length 0.955868   
     axis -90 -7.62852e-016 -20   XYZ
    dof rx
    limits (-90.0 20.0)
  end
  begin
     id 11 
     name lowerback
     direction -0.0104711 0.984802 -0.173368   
     length 1.84931   
     axis 0 0 0   XYZ
    dof rx ry rz
    limits (-20.0 45.0)
           (-30.0 30.0)
           (-30.0 30.0)
  end
  begin
     id 12 
     name upperback
     direction -0.00286433 0.999996 -0.000382853   
     length 1.85768   
     axis 0 0 0   XYZ
    dof rx ry rz
    limits (-20.0 45.0)
           (-30.0 30.0)
           (-30.0 30.0)
  end
  begin
     id 13 
     name thorax
     direction 0.00167534 0.996793 0.0800069   
     length 1.92   
     axis 0 0 0   XYZ
    dof rx ry rz
    limits (-20.0 45.0)
           (-30.0 30.0)
           (-30.0 30.0)
  end
  begin
     id 14 
     name lowerneck
     direction -0.0672491 0.995415 0.068018   
     length 1.58923   
     axis 0 0 0   XYZ
    dof rx ry rz
    limits (-20.0 45.0)
           (-30.0 30.0)
           (-30.0 30.0)
  end
  begin
     id 15 
     name upperneck
     direction 0.0958019 0.982476 -0.159884   
     length 1.60189   
     axis 0 0 0   XYZ
    dof rx ry rz
    limits (-20.0 45.0)
           (-30.0 30.0)
           (-30.0 30.0)
  end
  begin
     id 16
     name head
     direction 0.032989 0.997338 -0.0650226  
     length 1.61681  
     axis 0 0 0   XYZ
    dof rx ry rz
    limits (-20.0 45.0)
           (-30.0 30.0)
           (-30.0 30.0)
  end
  begin
     id 17 
     name lclavicle
     direction 0.954279 0.298875 -0.00496069  
     length 2.99449  
     axis 0 0 0   XYZ
    dof ry rz
    limits (-20.0 10.0)
           (0.0 20.0)
  end
  begin
     id 18 
     name lhumerus
     direction 1 -4.48985e-011 -4.2057e-027   
     length 4.79185   
     axis 180 -30 -90   XYZ
    dof rx ry rz
    limits (-60.0 90.0)
           (-90.0 90.0)
           (-90.0 90.0)
  end
  begin
     id 19
     name lradius
     direction 1 -4.48945e-011 1.15441e-028   
     length 2.65553   
     axis 180 -30 -90   XYZ
    dof rx
    limits (-10.0 170.0)
  end
  begin
     id 20
     name lwrist
     direction 1 -4.4899e-011 4.8894e-028   
     length 1.32777   
     axis -2.56392e-016 90 90   XYZ
    dof ry
    limits (-180.0 0.0)
 end
  begin
     id 21 
     name lhand
     direction 1 -4.48908e-011 9.7788e-028   
     length 0.743904   
     axis -6.23971e-016 90 90   XYZ
    dof rx rz
    limits (-90.0 90.0)
           (-45.0 45.0)
  end
  begin
     id 22 
     name lfingers
     direction 1 -4.49068e-011 1.95576e-027   
     length 0.599754   
     axis -1.24794e-015 90 90   XYZ
    dof rx
    limits (0.0 90.0)
  end
  begin
     id 23
     name lthumb
     direction 0.707107 -6.34883e-011 0.707107   
     length 0.861131   
     axis -90 45 2.85299e-015   XYZ
    dof rx rz
    limits (-45.0 45.0)
           (-45.0 45.0)
  end
  begin
     id 24 
     name rclavicle
     direction -0.957921 0.286916 0.00811568   
     length 3.06817  
     axis 0 0 0   XYZ 
    dof ry rz
    limits (-10.0 20.0)
           (-20.0 0.0)
  end
  begin
     id 25 
     name rhumerus
     direction -1 -4.48971e-011 -3.07942e-027  
     length 4.77254   
     axis 180 30 90   XYZ
    dof rx ry rz
    limits (-90.0 60.0)
           (-90.0 90.0)
           (-90.0 90.0)
  end
  begin
     id 26 
     name rradius
     direction -1 -4.48957e-011 -9.6815e-028   
     length 2.75995   
     axis 180 30 90   XYZ
    dof rx
    limits (-10.0 170.0)
  end
  begin
     id 27 
     name rwrist
     direction -1 -4.48979e-011 4.8894e-028   
     length 1.37997   
     axis -2.56392e-016 -90 -90   XYZ
    dof ry
    limits (-180.0 0.0)
  end
  begin
     id 28
     name rhand
     direction -1 -4.48906e-011 9.7788e-028   
     length 0.701619   
     axis -6.23971e-016 -90 -90   XYZ
    dof rx rz
    limits (-90.0 90.0)
           (-45.0 45.0)
  end
  begin
     id 29
     name rfingers
     direction -1 -4.49018e-011 1.95576e-027   
     length 0.565663   
     axis -1.24794e-015 -90 -90   XYZ
    dof rx
    limits (0.0 90.0)
  end
  begin
     id 30
     name rthumb
     direction -0.707107 -6.34881e-011 0.707107   
     length 0.812183   
     axis -90 -45 -2.85299e-015   XYZ
    dof rx rz
    limits (-45.0 45.0)
           (-45.0 45.0)
  end
:hierarchy
  begin
    root lhipjoint rhipjoint lowerback
    lhipjoint lfemur
    lfemur ltibia
    ltibia lfoot
    lfoot ltoes
    rhipjoint rfemur
    rfemur rtibia
    rtibia rfoot
    rfoot rtoes
    lowerback upperback
    upperback thorax
    thorax lowerneck lclavicle rclavicle
    lowerneck upperneck
    upperneck head
    lclavicle lhumerus
    lhumerus lradius
    lradius lwrist
    lwrist lhand lthumb
    lhand lfingers
    rclavicle rhumerus
    rhumerus rradius
    rradius rwrist
    rwrist rhand rthumb
    rhand rfingers
  end

#!OML:ASF F:\VICON\USERDATA\INSTALL\rory3\rory3.ASF
:FULLY-SPECIFIED
:DEGREES
102
root 0.309742 16.1415 -0.44207 0.997378 -0.234396 -1.2071
lowerback 12.7885 1.03127 -1.79262
upperback 1.20811 1.07033 -0.669316
thorax -5.92191 0.560381 0.119218
lowerneck -2.30669 -12.4361 -17.5562
upperneck 13.4289 -17.8671 14.7628
head 7.42229 -8.75248 5.95475
rclavicle -1.49089e-014 3.18055e-015
rhumerus -31.4609 11.2672 -96.9176
rradius 57.4123
rwrist 4.4508
rhand -6.0936 4.86973
rfingers 7.12502
rthumb 19.7424 -24.1477
lclavicle -1.49089e-014 3.18055e-015
lhumerus -34.444 -16.6264 89.9726
lradius 72.2511
lwrist 4.285
lhand -1.84436 20.0257
lfingers 7.12502
lthumb 23.8227 48.5686
rfemur -3.84641 13.5105 17.7704
rtibia 16.9647
rfoot -10.5339 -14.1674
rtoes -10.2699
lfemur -1.83683 -12.2024 -15.7768
ltibia 12.1924
lfoot -8.58602 9.86261
ltoes -12.344
103
root 0.311153 16.134 -0.469766 1.11819 0.0267192 -1.13748
lowerback 12.936 0.950973 -1.71821
upperback 1.30162 0.969891 -0.707536
thorax -5.90145 0.508371 0.0535835
lowerneck -2.4191 -12.3897 -17.4992
upperneck 13.2575 -17.7725 14.799
head 7.36842 -8.69835 5.96619
rclavicle -1.27222e-014 -6.36111e-015
rhumerus -31.4538 11.6337 -96.9413
rradius 59.842
rwrist 6.2288
rhand -4.89878 4.81819
rfingers 7.12502
rthumb 20.8907 -24.077
lclavicle -1.27222e-014 -6.36111e-015
lhumerus -33.7257 -16.9766 89.8832
lradius 73.2548
lwrist 3.93008
lhand -1.03176 20.691
lfingers 7.12502
lthumb 24.6018 49.1301
rfemur -4.60665 13.3419 17.6498
rtibia 18.0239
rfoot -10.8224 -14.2753
rtoes -10.8125
lfemur -2.54721 -12.3247 -15.7701
ltibia 12.9609
lfoot -8.76621 9.69263
ltoes -11.9092
104
root 0.318342 16.1215 -0.498489 1.17975 0.587065 -0.765199
lowerback 13.151 0.767744 -1.87515
upperback 1.44529 0.696926 -0.784574
thorax -5.8657 0.376777 0.108483
lowerneck -2.64546 -12.3081 -17.5199
upperneck 13.1413 -17.618 14.8695
head 7.35278 -8.61131 6.002
rclavicle -3.37934e-015 1.82882e-014
rhumerus -31.377 12.1631 -96.8636
rradius 62.3499
rwrist 7.90192
rhand -3.48625 4.64872
rfingers 7.12502
rthumb 22.2472 -24.0908
lclavicle -3.37934e-015 1.82882e-014
lhumerus -32.9247 -17.2764 89.8321
lradius 74.4059
lwrist 3.17562
lhand -0.145384 21.1443
lfingers 7.12502
lthumb 25.4511 49.465
rfemur -5.29219 12.8888 17.198
rtibia 19.1665
rfoot -11.1527 -14.3995
rtoes -11.5775
lfemur -3.39437 -12.6778 -16.1276
ltibia 13.9755
lfoot -8.92223 9.43091
ltoes -12.1396
105
root 0.319883 16.1075 -0.537814 1.34732 1.07466 -0.386629
lowerback 13.3829 0.622219 -2.10772
upperback 1.56249 0.461986 -0.854586
thorax -5.86764 0.265886 0.207108
lowerneck -2.85075 -12.2058 -17.5192
upperneck 12.9227 -17.432 14.9693
head 7.29583 -8.50857 6.05096
rclavicle -1.25234e-014 -6.75868e-015
rhumerus -31.1728 12.6755 -96.7554
rradius 64.9692
rwrist 9.33452
rhand -1.8608 4.66578
rfingers 7.12502
rthumb 23.8069 -23.8792
lclavicle -1.25234e-014 -6.75868e-015
lhumerus -32.0335 -17.7281 89.7513
lradius 75.7411
lwrist 2.2113
lhand 0.809899 21.6592
lfingers 7.12502
lthumb 26.3659 49.8462
rfemur -6.18059 12.5528 16.7189
rtibia 20.3694
rfoot -11.552 -14.5596
rtoes -11.6571
lfemur -4.52936 -12.9486 -16.4466
ltibia 15.2351
lfoot -9.10445 9.19116
ltoes -12.7347
106
root 0.310657 16.0927 -0.582101 1.65298 1.16351 -0.568711
lowerback 13.5326 0.60124 -1.93942
upperback 1.63346 0.459405 -0.800619
thorax -5.87448 0.260993 0.168565
lowerneck -3.14694 -12.119 -17.457
upperneck 12.7689 -17.2688 15.0811
head 7.27498 -8.40856 6.08577
rclavicle 7.95139e-016 5.1684e-015
rhumerus -30.8524 13.0389 -96.6904
rradius 67.8232
rwrist 10.5035
rhand 0.194455 4.40982
rfingers 7.12502
rthumb 25.7766 -23.864
lclavicle 7.95139e-016 5.1684e-015
lhumerus -31.1499 -18.3513 89.6113
lradius 77.3063
lwrist 1.25968
lhand 1.49752 22.4294
lfingers 7.12502
lthumb 27.0239 50.5161
rfemur -7.37437 12.6017 16.8545
rtibia 21.6628
rfoot -11.9296 -14.7501
rtoes -11.7866
lfemur -5.82977 -12.8683 -16.0701
ltibia 16.6233
lfoot -9.48941 8.98407
ltoes -12.8957
107
root 0.302765 16.0733 -0.628486 1.85984 1.23742 -0.789383
lowerback 13.8412 0.575655 -1.71567
upperback 1.72361 0.456067 -0.743015
thorax -5.94841 0.254812 0.101383
lowerneck -3.47441 -12.0585 -17.4188
upperneck 12.6796 -17.1398 15.1711
head 7.28649 -8.325 6.10977
rclavicle 1.03368e-014 1.11319e-014
rhumerus -30.471 13.4011 -96.6447
rradius 70.8421
rwrist 11.666
rhand 2.3952 4.10261
rfingers 7.12502
rthumb 27.8825 -23.8479
lclavicle 1.03368e-014 1.11319e-014
lhumerus -30.2585 -18.991 89.4493
lradius 79.089
lwrist 0.445919
lhand 1.95444 23.2248
lfingers 7.12502
lthumb 27.461 51.2429
rfemur -8.49816 12.5954 17.0506
rtibia 22.9805
rfoot -12.2037 -14.9202
rtoes -12.3254
lfemur -7.1179 -12.7597 -15.6795
ltibia 18.2016
lfoot -9.96463 8.76036
ltoes -13.1005
108
root 0.297742 16.0512 -0.675518 2.01531 1.16626 -0.758377
lowerback 14.2163 0.604838 -1.74619
upperback 1.81452 0.481639 -0.749098
thorax -6.05991 0.26803 0.104582
lowerneck -3.6264 -11.9361 -17.1353
upperneck 12.4338 -16.9149 15.0391
head 7.15706 -8.20662 6.04936
rclavicle 7.95139e-015 1.63003e-014
rhumerus -30.0585 13.9063 -96.6026
rradius 73.8214
rwrist 12.9932
rhand 4.05061 4.18745
rfingers 7.12502
rthumb 29.464 -23.4955
lclavicle 7.95139e-015 1.63003e-014
lhumerus -29.3019 -19.6612 89.2754
lradius 80.9609
lwrist -0.258508
lhand 2.15281 23.7102
lfingers 7.12502
lthumb 27.6507 51.6981
rfemur -9.61644 12.456 16.9394
rtibia 24.2951
rfoot -12.4021 -14.8655
rtoes -12.6577
lfemur -8.38174 -12.6062 -15.6229
ltibia 19.9068
lfoot -10.5162 8.67916
ltoes -13.7733
109
root 0.292371 16.0248 -0.724026 2.24393 0.918108 -0.763032
lowerback 14.5083 0.685436 -1.78456
upperback 1.88321 0.576809 -0.730564
thorax -6.15022 0.315586 0.125037
lowerneck -3.79399 -11.7613 -16.737
upperneck 12.2259 -16.6065 14.7635
head 7.00634 -8.05 5.93564
rclavicle 1.05356e-014 -1.39149e-014
rhumerus -29.6218 14.4812 -96.5485
rradius 76.8486
rwrist 14.381
rhand 5.4091 4.38551
rfingers 7.12502
rthumb 30.7601 -23.0614
lclavicle 1.05356e-014 -1.39149e-014
lhumerus -28.2693 -20.3082 89.0585
lradius 82.9102
lwrist -0.976145
lhand 2.41148 23.8831
lfingers 7.12502
lthumb 27.898 51.8311
rfemur -10.9054 12.4332 16.83
rtibia 25.6743
rfoot -12.6774 -14.7127
rtoes -12.5165
lfemur -9.67473 -12.3555 -15.5249
ltibia 21.5254
lfoot -11.0403 8.69028
ltoes -14.4538
110
root 0.29833 15.991 -0.775281 2.17746 1.14401 -0.789098
lowerback 15.1212 0.550754 -1.53901
upperback 2.05848 0.426804 -0.726391
thorax -6.29734 0.236651 0.0158181
lowerneck -3.957 -11.6098 -16.6345
upperneck 12.071 -16.3514 14.7119
head 6.92927 -7.91966 5.93157
rclavicle -9.44227e-015 1.59028e-015
rhumerus -29.068 15.0897 -96.4536
rradius 79.9111
rwrist 15.8825
rhand 6.68956 4.64018
rfingers 7.12502
rthumb 31.9802 -22.5697
lclavicle -9.44227e-015 1.59028e-015
lhumerus -27.0401 -20.8383 88.7611
lradius 84.8752
lwrist -1.61833
lhand 2.64754 24.035
lfingers 7.12502
lthumb 28.1237 51.9461
rfemur -11.8108 12.1383 16.8104
rtibia 27.0936
rfoot -13.0873 -14.7206
rtoes -12.6686
lfemur -10.7216 -12.5363 -15.4762
ltibia 23.0436
lfoot -11.4272 8.60921
ltoes -14.8622
111
root 0.300881 15.9553 -0.825198 2.01361 1.4139 -0.691032
lowerback 15.7835 0.421454 -1.45174
upperback 2.29049 0.258351 -0.750036
thorax -6.41122 0.152031 -0.0275016
lowerneck -4.03829 -11.4879 -16.6978
upperneck 11.9109 -16.1575 14.7982
head 6.87362 -7.82221 5.99331
rclavicle -1.39149e-015 8.34896e-015
rhumerus -28.3405 15.8079 -96.3368
rradius 82.9727
rwrist 17.4014
rhand 7.64579 4.61934
rfingers 7.12502
rthumb 32.8902 -22.404
lclavicle -1.39149e-015 8.34896e-015
lhumerus -25.5955 -21.4128 88.4136
lradius 86.8067
lwrist -2.07241
lhand 2.58953 24.2875
lfingers 7.12502
lthumb 28.0683 52.2077
rfemur -12.5771 11.8476 16.7017
rtibia 28.5197
rfoot -13.451 -14.8093
rtoes -13.1228
lfemur -11.6231 -12.7114 -15.5698
ltibia 24.5097
lfoot -11.7905 8.41904
ltoes -15.0539
112
root 0.283887 15.9223 -0.871032 2.09928 1.09961 -0.63707
lowerback 16.0868 0.572262 -1.71106
upperback 2.45658 0.409098 -0.734351
thorax -6.40337 0.230602 0.103017
lowerneck -4.0106 -11.3675 -16.7231
upperneck 11.7338 -15.9856 14.9001
head 6.79514 -7.73806 6.05759
rclavicle 1.78906e-015 4.37326e-015
rhumerus -27.3416 16.6835 -96.1308
rradius 85.8206
rwrist 18.7907
rhand 8.34784 4.46709
rfingers 7.12502
rthumb 33.5577 -22.4138
lclavicle 1.78906e-015 4.37326e-015
lhumerus -24.1942 -22.0524 88.0617
lradius 88.8335
lwrist -2.46409
lhand 2.30918 24.6575
lfingers 7.12502
lthumb 27.8002 52.6213
rfemur -13.6826 12.1214 16.6369
rtibia 29.9486
rfoot -13.8048 -14.8803
rtoes -13.3299
lfemur -12.5987 -12.275 -15.518
ltibia 25.9201
lfoot -12.1831 8.17216
ltoes -15.2844
113
root 0.268869 15.8848 -0.921643 2.04576 0.905412 -0.583775
lowerback 16.6482 0.677903 -1.89031
upperback 2.61919 0.504818 -0.734328
thorax -6.53902 0.280946 0.180054
lowerneck -3.97027 -11.2505 -16.7786
upperneck 11.6065 -15.8276 15.0285
head 6.73734 -7.66068 6.13364
rclavicle -1.68967e-015 5.96354e-015
rhumerus -26.0855 17.7204 -95.8236
rradius 88.175
rwrist 19.9524
rhand 8.21165 4.75767
rfingers 7.12502
rthumb 33.4282 -22.1512
lclavicle -1.68967e-015 5.96354e-015
lhumerus -22.8047 -22.7795 87.6228
lradius 90.8015
lwrist -2.73295
lhand 1.78908 24.658
lfingers 7.12502
lthumb 27.3029 52.7011
rfemur -14.6052 12.252 16.5934
rtibia 31.3327
rfoot -14.1496 -14.9099
rtoes -13.6479
lfemur -13.4212 -11.9652 -15.4994
ltibia 27.2636
lfoot -12.5121 7.96698
ltoes -15.3567
